<?xml version="1.0" encoding="utf-8"?>
<!-- Generator: Adobe Illustrator 24.1.3, SVG Export Plug-In . SVG Version: 6.00 Build 0)  -->
<svg version="1.1" id="Layer_1" xmlns="http://www.w3.org/2000/svg" xmlns:xlink="http://www.w3.org/1999/xlink" x="0px" y="0px"
	 viewBox="0 0 512 512" style="enable-background:new 0 0 512 512;" xml:space="preserve">
<style type="text/css">
	.st0{fill:none;stroke:rgba(197, 214, 226, 0.5);stroke-width:4;stroke-miterlimit:10;}
	.st1{fill:rgba(197, 214, 226, 0.5);}
</style>
<g>
	<circle class="st0" cx="256" cy="256" r="203"/>
	<circle class="st1" cx="256" cy="333" r="26"/>
	<path class="st1" d="M337.32,295.5l-56.84-124.26c-0.5-1.38-1.11-2.71-1.82-3.98l0,0h0C274.21,159.35,265.73,154,256,154
		s-18.21,5.35-22.66,13.26l0,0c-0.72,1.28-1.34,2.62-1.83,4.02l-55.82,122.38c-2.34,3.9-3.68,8.46-3.68,13.34
		c0,14.36,11.64,26,26,26c9.89,0,18.49-5.52,22.89-13.66h0.19c5.46-13.96,19.03-23.84,34.92-23.84s29.46,9.89,34.92,23.84h0
		l0.15-0.08c4.38,8.17,13,13.73,22.93,13.73c14.36,0,26-11.64,26-26C340,302.87,339.03,298.97,337.32,295.5z"/>
</g>
</svg>
