<svg viewBox="-10 -10 70 87" xmlns="http://www.w3.org/2000/svg"><path d="m20 33.51 25 14.32a1.32 1.32 0 0 0 2-1.14v-26.38a1.31 1.31 0 0 0 -2-1.13z" fill="#31cb9e"/><path d="m44.47 12.84-17.09-12.57a1.36 1.36 0 0 0 -2.14.73l-6.24 28 25.32-14a1.26 1.26 0 0 0 .15-2.15" fill="#31cb9e"/><path d="m27.36 66.74 17.11-12.57a1.28 1.28 0 0 0 -.14-2.17l-25.33-14 6.24 28a1.35 1.35 0 0 0 2.12.77" fill="#31cb9e"/><path d="m13.5 33 6.5-30.41a1.29 1.29 0 0 0 -2-1.31l-16.65 12.77a3.45 3.45 0 0 0 -1.35 2.75v32.4a3.45 3.45 0 0 0 1.35 2.8l16.57 12.72a1.29 1.29 0 0 0 2-1.31z" fill="#31cb9e"/></svg>